<?xml version="1.0" standalone="no"?><!DOCTYPE svg PUBLIC "-//W3C//DTD SVG 1.1//EN" "http://www.w3.org/Graphics/SVG/1.1/DTD/svg11.dtd"><svg class="icon" width="200px" height="199.61px" viewBox="0 0 1026 1024" version="1.1" xmlns="http://www.w3.org/2000/svg"><path d="M565.88288 743.52128a13.12768 13.12768 0 0 1-4.54144-0.95744c-1.3056-0.5888-1.62304-1.97632-2.70336-2.83648-4.32128-1.54624-8.8576-2.80064-13.82912-2.80064a41.66656 41.66656 0 0 0-41.52832 41.4976 41.58464 41.58464 0 0 0 41.52832 41.51808 41.53344 41.53344 0 0 0 41.51808-41.51808c-0.01536-15.00672-8.45312-27.5968-20.44416-34.90304z" fill="#2c2c2c" /><path d="M512.02048 69.12c-244.59264 0-442.89536 198.28224-442.89536 442.89024 0 244.64384 198.30272 442.86976 442.89024 442.86976 244.608 0 442.92096-198.22592 442.92096-442.86976 0.02048-244.608-198.30272-442.89024-442.91584-442.89024z m143.50848 517.94432c-2.91328 0-5.41184-1.36192-8.22784-1.67936l-62.27968 138.25536c17.08032 12.58496 28.98432 31.9488 28.98432 54.78912-0.04608 38.20544-31.01696 69.1712-69.22752 69.21216-38.20032-0.04096-69.1712-31.00672-69.20704-69.21216 0.04608-38.1952 31.01696-69.14048 69.20704-69.1712 5.29408 0 10.0608 1.88416 15.03744 3.01568l61.21984-135.808c-16.21504-9.55904-27.4688-25.1136-31.68256-43.95008l-156.69248-20.28544c-9.94304 26.02496-34.72384 44.672-64.2304 44.672-38.1696 0-69.20704-31.04768-69.20704-69.2224 0-38.1696 31.03232-69.20192 69.20704-69.20192 8.64768 0 16.75264 2.00704 24.44288 4.9152l82.83136-128.5376a69.0432 69.0432 0 0 1-20.86912-49.28512c0-38.1696 31.02208-69.20192 69.1968-69.20192 38.1696 0 69.23264 31.0272 69.23264 69.20192-0.04608 38.21568-31.02208 69.18656-69.23264 69.21728a68.18816 68.18816 0 0 1-24.97536-5.0688L416.34816 438.03136a68.44416 68.44416 0 0 1 20.7616 46.82752l151.93088 19.62496c6.50752-31.57504 33.09568-55.83872 66.49856-55.83872 38.20032 0.03072 69.16608 30.99648 69.20192 69.20192-0.03584 38.20544-31.00672 69.18144-69.21216 69.21728z" fill="#2c2c2c" /><path d="M524.02176 287.10912c22.90688 0 41.5232-18.63168 41.5232-41.5232 0-22.89664-18.60608-41.52832-41.5232-41.52832-22.79936 0-41.52832 18.62656-41.52832 41.52832 0 22.89152 18.72896 41.5232 41.52832 41.5232z m-155.5968 159.06304a41.63072 41.63072 0 0 0-41.51296 41.52832 41.6256 41.6256 0 0 0 41.51296 41.51296 41.55392 41.55392 0 0 0 41.5232-41.51296 41.55904 41.55904 0 0 0-41.5232-41.52832z m287.104 30.1568a41.64608 41.64608 0 0 0-41.5232 41.53344 41.64608 41.64608 0 0 0 41.5232 41.51808c22.912-0.03584 41.48736-18.61632 41.4976-41.51808a41.54368 41.54368 0 0 0-41.4976-41.53344z" fill="#2c2c2c" /></svg>